<svg xmlns="http://www.w3.org/2000/svg"
     xmlns:xlink="http://www.w3.org/1999/xlink"
     width="200" height="150"
     viewBox="0 0  "
     version="1.1">
  <title>Lognest</title>

  <script><![CDATA[

    // SVG script here

  ]]></script>

  <defs>

  </defs>


  <ellipse cx="100" cy="100" rx="80" ry="20" fill="#154f94" />

  <!-- rgb(58, 117, 85)" -->

  <path fill="rgb(58, 117, 85)" stroke="none" stroke-width="1"
        d="
          M 150 100
          l -100 0
          c 10 -10 30 -40 75 -20
          c 20 10 -10 -50 10 -50
          c 0 0 20 0 20 10
          c 0 5 -5 10 -5 10
          c -2 2 -5 2 -5 2
          c -5 0 -5 5 -5 5
          c 15 30 10 40 10 43
          z
          " />

  <path fill="none" stroke="rgb(12, 94, 128)" opacity="0.5" stroke-width="1"
        d="M 50 100 l 100 0" />
                
          <!-- c -5 2 -5 5 -5 5           -->

  <!-- <path fill="none" stroke="black" stroke-width="1"
        d="M 140 150 l 10 0" /> -->

  <path fill="none" stroke="rgb(17, 69, 41)" stroke-width="0.5"
        d="M 146 48 c 2 2 5 0 5 0" />


  <ellipse cx="135" cy="038" transform="rotate(20, 135, 38)" rx="4" ry="4.5" fill="white" />
  <ellipse cx="136.5" cy="038" transform="rotate(-10, 140, 40)" rx="2" ry="2.5" fill="rgb(103, 103, 103)"/>
  <ellipse cx="136.5" cy="038" transform="rotate(-10, 140, 40)" rx="1.5" ry="2" fill="black" />

  <ellipse cx="152" cy="040" transform="rotate(8, 152, 042)" rx="1" ry="2" fill="rgb(19, 78, 46)"/>
</svg>
